<svg width="53" height="77" viewBox="0 0 53 77" fill="none" xmlns="http://www.w3.org/2000/svg">
<g id="icons" clip-path="url(#clip0_303_1033)">
<path id="Vector" d="M43.1025 55.3336C42.6443 54.879 41.8859 54.879 41.4277 55.3336C40.9695 55.7882 40.9695 56.5406 41.4277 56.9952L46.1203 61.6509L46.3731 61.9331C47.0525 62.6698 47.4001 63.046 47.4001 64.0023V70.2725C47.4001 70.9152 47.9373 71.4482 48.5851 71.4482C49.2329 71.4482 49.7701 70.9152 49.7701 70.2725V64.0023C49.7701 62.1369 48.9327 61.2277 48.1269 60.3342L43.1025 55.3336Z" fill="#0B6AC9" stroke="#0B6AC9" stroke-width="0.481183"/>
<path id="Vector_2" d="M11.5024 55.3336C11.0442 54.879 10.2858 54.879 9.82759 55.3336L5.04018 60.0833L4.80318 60.3342C3.99737 61.212 3.15997 62.1212 3.15997 64.0023V70.2725C3.15997 70.9152 3.69717 71.4482 4.34498 71.4482C4.99278 71.4482 5.52998 70.9152 5.52998 70.2725V64.0023C5.52998 63.046 5.87758 62.6698 6.55698 61.9331L11.5024 56.9952C11.9606 56.5406 11.9606 55.7882 11.5024 55.3336Z" fill="#0B6AC9" stroke="#0B6AC9" stroke-width="0.481183"/>
<path id="Vector_3" d="M21.725 16.5832C22.3728 16.5832 22.91 16.0502 22.91 15.4075V2.47513H30.0201V15.4075C30.0201 16.0502 30.5573 16.5832 31.2051 16.5832C31.8529 16.5832 32.3901 16.0502 32.3901 15.4075V1.29945C32.3901 0.656751 31.8529 0.123779 31.2051 0.123779H21.725C21.0772 0.123779 20.54 0.656751 20.54 1.29945V15.4075C20.54 16.0502 21.0772 16.5832 21.725 16.5832Z" fill="#0B6AC9" stroke="#0B6AC9" stroke-width="0.481183"/>
<path id="Vector_4" d="M51.7451 28.3401H1.185C0.537201 28.3401 0 28.8731 0 29.5158C0 30.1585 0.537201 30.6914 1.185 30.6914H7.97902C7.93162 30.8168 7.90002 30.9422 7.90002 31.0833V40.4887C7.90002 42.4011 8.34242 46.9784 9.68542 48.9849C10.191 49.7217 11.3918 50.9757 12.64 52.1827V64.8173L9.71702 62.9989C9.16402 62.6541 8.43722 62.8265 8.08962 63.3752C7.74202 63.9238 7.91582 64.6449 8.46882 64.9897L12.8138 67.686C13.0034 68.0465 13.3668 68.2816 13.8092 68.2973L20.5558 72.4827V74.9595C20.5558 75.6022 21.093 76.1351 21.7408 76.1351C22.3886 76.1351 22.9258 75.6022 22.9258 74.9595V71.8243C22.9258 71.4168 22.7204 71.0405 22.3728 70.8211L15.0258 66.2751V54.393C15.6104 54.926 16.0528 55.3179 16.1792 55.4276C18.5176 57.6535 21.6144 58.8919 24.9008 58.8919H28.0609C31.3315 58.8919 34.4283 57.6692 36.7509 55.459C36.8931 55.3335 37.3355 54.926 37.9359 54.393V66.2751L30.5889 70.8211C30.2413 71.0405 30.0359 71.4168 30.0359 71.8243V74.9595C30.0359 75.6022 30.5731 76.1351 31.2209 76.1351C31.8687 76.1351 32.4059 75.6022 32.4059 74.9595V72.4827L39.1525 68.2973C39.5791 68.2973 39.9425 68.0308 40.1479 67.686L44.4929 64.9897C45.0459 64.6449 45.2197 63.9238 44.8721 63.3752C44.5245 62.8265 43.7977 62.6541 43.2447 62.9989L40.3217 64.8173V52.1827C41.5699 50.9757 42.7865 49.7217 43.2763 48.9849C44.6193 46.9784 45.0617 42.4011 45.0617 40.4887V31.0833C45.0617 30.9422 45.0301 30.8168 44.9827 30.6914H51.7767C52.4245 30.6914 52.9617 30.1585 52.9617 29.5158C52.9617 28.8731 52.4245 28.3401 51.7767 28.3401H51.7451ZM42.6601 31.0833V40.4887C42.6601 42.6363 42.1387 46.3984 41.2855 47.6682C40.9063 48.2168 39.9109 49.2671 38.7891 50.3487C38.4099 50.4584 38.1255 50.7406 37.9991 51.1011C36.8931 52.1514 35.7713 53.1703 35.1393 53.7346C33.2433 55.553 30.7153 56.5406 28.0609 56.5406H24.9008C22.2306 56.5406 19.7184 55.5373 17.7908 53.7033C17.1588 53.139 16.0686 52.1357 14.9468 51.0854C14.8204 50.7092 14.536 50.4427 14.1568 50.333C13.035 49.2514 12.0396 48.2168 11.6604 47.6525C10.8072 46.3828 10.2858 42.6049 10.2858 40.473V31.0676C10.2858 30.9266 10.2542 30.8012 10.2068 30.6758H42.7549C42.7075 30.8012 42.6759 30.9266 42.6759 31.0676L42.6601 31.0833Z" fill="#0B6AC9" stroke="#0B6AC9" stroke-width="0.481183"/>
<path id="Vector_5" d="M35.9451 11.8806C36.5929 11.8806 37.1301 11.3476 37.1301 10.7049V4.92063C41.6647 7.71089 45.8201 11.6298 45.8201 18.5428V21.6779C45.8201 22.1168 46.0729 22.5244 46.4679 22.7282L48.9801 23.9665V26.3806C48.9801 27.0233 49.5173 27.5563 50.1651 27.5563C50.8129 27.5563 51.3501 27.0233 51.3501 26.3806V23.2455C51.3501 22.8065 51.0973 22.399 50.7023 22.1952L48.1901 20.9568V18.5428C48.1901 9.46656 41.9491 4.84225 36.5297 1.83253C36.1663 1.62874 35.7081 1.62874 35.3447 1.83253C34.9813 2.03631 34.7601 2.4282 34.7601 2.85144V10.6893C34.7601 11.332 35.2973 11.8649 35.9451 11.8649V11.8806Z" fill="#0B6AC9" stroke="#0B6AC9" stroke-width="0.481183"/>
<path id="Vector_6" d="M2.76502 27.5563C3.41282 27.5563 3.95002 27.0233 3.95002 26.3806V23.9665L6.46223 22.7282C6.85723 22.5244 7.11003 22.1168 7.11003 21.6779V18.5428C7.11003 12.7584 9.73283 8.6044 15.8 4.90495V10.7049C15.8 11.3476 16.3372 11.8806 16.985 11.8806C17.6328 11.8806 18.1701 11.3476 18.1701 10.7049V2.86712C18.1701 2.45955 17.9488 2.06766 17.5854 1.86387C17.222 1.64441 16.7796 1.64441 16.4162 1.8482C10.981 4.77954 4.74002 9.34116 4.74002 18.5584V20.9725L2.22782 22.2109C1.83282 22.4146 1.58002 22.8222 1.58002 23.2611V26.3963C1.58002 27.039 2.11722 27.5719 2.76502 27.5719V27.5563Z" fill="#0B6AC9" stroke="#0B6AC9" stroke-width="0.481183"/>
</g>
<defs>
<clipPath id="clip0_303_1033">
<rect width="52.9301" height="76.0269" fill="white" transform="translate(0 0.123779)"/>
</clipPath>
</defs>
</svg>
