<svg width="84" height="64" viewBox="0 0 84 64" fill="none" xmlns="http://www.w3.org/2000/svg">
<g id="icons" clip-path="url(#clip0_303_1042)">
<path id="Vector" d="M6.11421 59.1792H34.2113C35.3599 59.1792 36.2965 60.1319 36.2965 61.3003C36.2965 62.4687 35.3599 63.4214 34.2113 63.4214H2.82738C1.27232 63.4214 0 62.1271 0 60.5453C0 59.7904 0.300409 59.0713 0.812872 58.5321L24.6866 33.9779C28.4682 30.0234 31.6313 24.9544 31.49 18.3934C31.3486 11.0595 24.934 5.07379 17.7241 5.18164C11.7336 5.27151 7.61626 7.41056 4.20573 10.4304C3.32217 11.2033 1.99684 11.1135 1.27232 10.1787C0.583147 9.31594 0.689174 8.05767 1.50205 7.32069C5.1423 3.99527 10.0372 0.849609 18.1483 0.849609C28.9453 0.849609 36.1198 8.3273 36.1198 18.7529C36.1198 26.68 32.5856 32.0726 27.885 36.854L6.11421 58.9994V59.1792Z" fill="#0B6AC9"/>
<path id="Vector_2" d="M73.8123 37.6629L73.724 37.573C71.4267 39.2806 67.8748 40.7186 63.1036 40.7186C51.158 40.7186 43.365 32.7916 43.365 20.8201C43.365 8.84858 50.9812 0.849609 63.5454 0.849609C76.1096 0.849609 83.7258 8.77668 83.7258 20.8381C83.7258 27.417 80.8985 34.3374 76.1096 41.905L63.2627 62.4507C62.8916 63.0618 62.2378 63.4214 61.5309 63.4214C59.9052 63.4214 58.9333 61.6059 59.7991 60.2038L73.8123 37.6808V37.6629ZM63.5454 36.4046C73.5473 36.4046 79.1137 30.3649 79.1137 20.8381C79.1137 11.3112 73.5296 5.18164 63.5454 5.18164C53.5612 5.18164 47.9772 11.4011 47.9772 20.8381C47.9772 30.275 53.5612 36.4046 63.5454 36.4046Z" fill="#0B6AC9"/>
</g>
<defs>
<clipPath id="clip0_303_1042">
<rect width="83.7258" height="62.5538" fill="white" transform="translate(0 0.849609)"/>
</clipPath>
</defs>
</svg>
