<svg width="148" height="63" viewBox="0 0 148 63" fill="none" xmlns="http://www.w3.org/2000/svg">
<g id="icons" clip-path="url(#clip0_303_1018)">
<path id="Vector" d="M147.242 47.2989C146.343 47.2989 145.445 47.2989 144.546 47.2989C142.979 47.2989 141.43 47.2989 139.863 47.2989C139.786 47.2989 139.691 47.2989 139.614 47.2989C139.48 47.2989 139.423 47.2409 139.423 47.1054C139.423 46.9893 139.423 46.8926 139.423 46.7765C139.423 40.8166 139.423 34.8568 139.423 28.9163C139.423 27.9101 139.423 26.9039 139.251 25.8977C139.079 24.7754 138.735 23.7305 137.913 22.8984C137.129 22.1051 136.192 21.6407 135.102 21.4665C133.325 21.1956 131.642 21.5439 130.017 22.2405C128.43 22.9371 127.016 23.924 125.811 25.1624C125.639 25.3366 125.563 25.5301 125.563 25.7623C125.563 32.767 125.563 39.7911 125.563 46.7958C125.563 47.3376 125.62 47.2796 125.085 47.2796C122.791 47.2796 120.478 47.2796 118.184 47.2796C118.107 47.2796 118.012 47.2796 117.935 47.2796C117.801 47.2796 117.725 47.2409 117.744 47.0861C117.744 47.0087 117.744 46.9119 117.744 46.8345C117.744 36.3855 117.744 25.9364 117.744 15.5067C117.744 15.0616 117.687 15.0616 118.164 15.0616C120.478 15.0616 122.791 15.0616 125.104 15.0616C125.161 15.0616 125.2 15.0616 125.257 15.0616C125.506 15.0616 125.525 15.0616 125.525 15.3325C125.525 16.1259 125.525 16.9386 125.525 17.732C125.525 17.9255 125.525 18.119 125.525 18.3125C125.525 18.4092 125.486 18.5253 125.601 18.564C125.697 18.6027 125.754 18.506 125.811 18.4479C126.328 17.9835 126.863 17.5578 127.417 17.1708C129.463 15.7389 131.7 14.7907 134.166 14.4811C136.594 14.1715 138.983 14.3457 141.239 15.3906C144.202 16.7451 146.076 19.0284 146.783 22.2792C146.993 23.2467 147.127 24.2336 147.146 25.2398C147.146 25.2398 147.204 40.5264 147.204 47.2989H147.242Z" fill="#0B6AC9"/>
<path id="Vector_2" d="M105.528 0.994148C105.528 0.994148 105.528 0.955448 105.528 0.916748H106.388C106.388 0.916748 106.388 0.955448 106.388 0.974798C106.101 1.14895 105.815 1.14895 105.528 0.974798V0.994148Z" fill="#0B6AC9"/>
<path id="Vector_3" d="M78.6871 62.508C78.9165 62.3726 79.165 62.45 79.4135 62.45C79.4135 62.45 79.4327 62.4887 79.4135 62.4887C79.4135 62.4887 79.4135 62.508 79.3944 62.508H78.668H78.6871Z" fill="#0B6AC9"/>
<path id="Vector_4" d="M79.7767 62.45C79.9106 62.45 80.0635 62.45 80.1973 62.45C80.1973 62.4693 80.1973 62.4887 80.1973 62.508H79.7576C79.7576 62.508 79.7194 62.4693 79.7385 62.4693C79.7385 62.4693 79.7576 62.4693 79.7767 62.4693V62.45Z" fill="#0B6AC9"/>
<path id="Vector_5" d="M79.7768 62.45C79.7768 62.45 79.7768 62.4887 79.7768 62.508H79.4136C79.4136 62.508 79.4136 62.4693 79.4136 62.45C79.5283 62.45 79.6621 62.45 79.7768 62.45Z" fill="#0B6AC9"/>
<path id="Vector_6" d="M58.1168 0.993896V1.4196C58.1168 16.5514 58.1168 31.6832 58.1168 46.7956C58.1168 47.3181 58.1741 47.26 57.658 47.26C55.3639 47.26 53.0507 47.26 50.7566 47.26C50.7375 47.26 50.6992 47.26 50.6801 47.26C50.2595 47.26 50.2978 47.2987 50.2978 46.873C50.2978 39.578 50.2978 32.283 50.2978 25.0074C50.2978 17.7317 50.2978 10.1271 50.2978 2.69671C50.2978 2.3871 50.4443 2.21295 50.7375 2.17425C53.1272 1.78725 55.5168 1.40025 57.9065 1.01325C57.9638 1.01325 58.0212 1.01325 58.1359 1.01325L58.1168 0.993896Z" fill="#0B6AC9"/>
<path id="Vector_7" d="M102.068 31.1802C102.068 25.9556 102.068 20.7311 102.068 15.5066C102.068 15.0228 102.029 15.0615 102.488 15.0615C104.821 15.0615 107.134 15.0615 109.466 15.0615C109.523 15.0615 109.562 15.0615 109.619 15.0615C109.81 15.0615 109.906 15.1647 109.906 15.3711C109.906 15.3711 109.906 15.4679 109.906 15.5259C109.906 25.9556 109.906 36.3853 109.906 46.8151C109.906 47.3569 109.944 47.2795 109.447 47.2795C107.134 47.2795 104.821 47.2795 102.507 47.2795C102.029 47.2795 102.087 47.3375 102.087 46.8538C102.087 41.6292 102.087 36.4047 102.087 31.1802H102.068Z" fill="#0B6AC9"/>
<path id="Vector_8" d="M0 21.6599C0.210291 21.0407 0.420582 20.4215 0.64999 19.8216C3.49848 12.4105 8.43076 6.89574 15.4277 3.27727C17.2821 2.30977 19.2512 1.59381 21.2585 1.05201C21.3159 1.05201 21.3732 1.03266 21.4114 0.974609C21.4688 0.974609 21.5453 0.974609 21.5453 1.07136C21.5453 1.14876 21.5453 1.24551 21.5453 1.32291C21.5453 3.62557 21.5453 5.92824 21.5453 8.2309C21.5453 8.5792 21.5453 8.5792 21.2394 8.6953C17.4924 10.0498 14.2616 12.217 11.6234 15.2356C9.99838 17.0932 8.71752 19.1831 7.76165 21.447C7.51312 22.0082 7.66606 21.9114 7.03519 21.9114C4.83669 21.9114 2.61908 21.9114 0.420582 21.9114C0.344113 21.9114 0.267643 21.9114 0.210291 21.9114C0.070097 21.9243 0 21.8405 0 21.6599Z" fill="#0B6AC9"/>
<path id="Vector_9" d="M105.528 0.993896C105.815 0.993896 106.101 0.993896 106.388 0.993896C107.918 1.1874 109.141 1.884 110.001 3.18046C111.951 6.12168 110.288 9.9143 107.019 10.6883C104.209 11.3462 101.723 9.41119 101.169 6.93438C100.615 4.39952 102.201 1.8066 104.725 1.1487C104.973 1.09065 105.241 1.05195 105.509 0.993896H105.528Z" fill="#0B6AC9"/>
<path id="Vector_10" d="M94.6309 15.4099C94.6309 15.081 94.631 15.081 94.306 15.1197C93.503 15.2551 92.7001 15.3712 91.8972 15.5067C90.6545 15.7002 89.4119 15.913 88.1693 16.1259C87.9781 16.1646 87.8061 16.1259 87.6149 16.0485C85.7223 15.1197 83.7149 14.5972 81.612 14.4037C79.5856 14.2102 77.5591 14.3263 75.5709 14.8101C70.8681 15.9711 67.3696 18.7188 65.152 23.0726C64.1005 25.1624 63.527 27.3876 63.3549 29.729C63.1829 31.8962 63.3549 34.0441 63.9476 36.1339C65.2667 40.6231 67.9813 43.9126 72.2063 45.8476C75.0165 47.1441 77.9797 47.473 81.0194 47.0086C82.9694 46.699 84.8046 46.0798 86.4678 44.9769C86.6781 44.8221 86.7546 44.8801 86.7546 45.151C86.7546 45.6928 86.7546 46.2346 86.7546 46.7958C86.7546 47.5117 86.7355 48.2277 86.6017 48.9243C86.0281 51.9816 84.2885 54.0327 81.3635 55.0002C79.9297 55.484 78.4385 55.6001 76.9283 55.5227C76.4695 55.5033 76.5077 55.4646 76.5077 55.9097C76.5077 58.0963 76.5077 60.3022 76.5077 62.4887H78.668C78.8974 62.4113 79.1459 62.4887 79.3944 62.45C79.5091 62.45 79.6429 62.45 79.7576 62.45C79.8915 62.45 80.0444 62.4887 80.1782 62.4113C80.3503 62.392 80.5032 62.3533 80.6753 62.3533C82.4723 62.1598 84.212 61.7534 85.8752 61.0375C89.7943 59.354 92.4707 56.5095 93.7898 52.388C94.3824 50.5497 94.5927 48.6534 94.5927 46.7184C94.5927 36.3274 94.5927 25.917 94.5927 15.526C94.5927 15.468 94.5927 15.4293 94.5927 15.3712L94.6309 15.4099ZM86.4487 38.7848C85.2443 39.5588 83.9252 40.0619 82.5297 40.3522C81.0194 40.6618 79.49 40.7198 77.9606 40.3522C75.0356 39.6362 73.0283 37.8173 71.9195 34.9922C71.2504 33.3281 71.0784 31.5673 71.2504 29.787C71.4033 28.1036 71.8813 26.5362 72.7989 25.1237C74.1563 23.0532 76.0489 21.7954 78.4768 21.4084C81.287 20.944 83.9443 21.5245 86.487 22.8017C86.6972 22.9178 86.7546 23.0532 86.7546 23.2854C86.7546 25.7816 86.7546 28.2777 86.7546 30.7739C86.7546 33.2701 86.7546 35.7469 86.7546 38.2237C86.7546 38.5139 86.659 38.6687 86.4296 38.8042L86.4487 38.7848Z" fill="#0B6AC9"/>
<path id="Vector_11" d="M43.8935 28.5679C43.7979 27.0199 43.5685 25.5106 43.0714 24.04C41.7332 20.0152 39.1715 17.132 35.2907 15.5066C32.1745 14.2102 28.9246 13.978 25.6746 14.7713C20.1306 16.1258 16.3071 19.5314 14.338 24.9688C13.3248 27.7939 13.1336 30.7158 13.5733 33.6764C13.8983 35.8823 14.6439 37.9527 15.8292 39.8297C17.7027 42.7516 20.3027 44.7446 23.4953 45.983C26.1717 47.0086 28.9628 47.3762 31.8113 47.2601C33.7422 47.1634 35.6157 46.8731 37.4701 46.3507C39.0377 45.9056 40.5288 45.3251 41.9435 44.4931C42.1156 44.3963 42.192 44.2802 42.192 44.0674C42.192 41.8808 42.192 39.6749 42.192 37.4883C42.192 37.4303 42.2303 37.3335 42.1156 37.2948C42.0391 37.3335 41.9626 37.3916 41.8862 37.4496C39.2671 39.2298 36.4186 40.4296 33.2451 40.7972C31.5054 40.9907 29.7658 40.9327 28.0834 40.4683C24.6805 39.5395 22.3865 37.4109 21.3923 33.9279C21.3159 33.6183 21.2012 33.3281 21.2012 32.9991C21.3923 32.9411 21.5453 32.9604 21.6982 32.9604C28.8864 32.9604 36.0745 32.9604 43.2817 32.9604C43.7405 32.9604 43.7597 32.9604 43.7979 32.496C43.9126 31.1996 43.97 29.9031 43.8935 28.6066V28.5679ZM21.2394 27.5037C21.2394 27.5037 21.2203 27.3876 21.2394 27.3295C21.7365 25.143 22.7688 23.3047 24.6232 22.0276C26.1908 20.944 27.9305 20.5183 29.804 20.6344C31.8495 20.7698 33.6083 21.5632 34.9657 23.1499C35.8451 24.1755 36.3612 25.3752 36.6289 26.691C36.6862 26.9425 36.7245 27.2134 36.7627 27.465C36.5142 27.5424 21.7365 27.5811 21.2585 27.5037H21.2394Z" fill="#0B6AC9"/>
</g>
<defs>
<clipPath id="clip0_303_1018">
<rect width="147.242" height="61.5914" fill="white" transform="translate(0 0.916748)"/>
</clipPath>
</defs>
</svg>
