<svg width="68" height="54" viewBox="0 0 68 54" fill="none" xmlns="http://www.w3.org/2000/svg">
<g id="logo" clip-path="url(#clip0_513_672)">
<path id="Vector" d="M57.0029 23.0269H44.6331C44.6331 23.0269 44.8142 13.4083 33.8157 12.5336C33.8157 12.5336 23.7092 12.5336 22.9649 23.0269H13.2765L20.1411 21.8611L10.458 17.7803L20.7362 18.3638L12.4125 11.9514L22.5189 15.4487L15.9792 6.99591L24.5999 12.5336L21.33 3.20619L27.8697 10.7843L26.9777 0.874653L31.4365 9.91099L33.2219 0L35.3028 9.61857L39.4647 0.582231L38.8696 11.0754L45.4093 2.62265L41.8425 12.8248L50.4632 6.41238L44.5186 15.1563L53.97 11.5128L46.3013 17.7789L56.4078 17.1954L47.192 21.5674L57.0016 23.0242L57.0029 23.0269Z" fill="url(#paint0_linear_513_672)"/>
<path id="Vector_2" d="M43.3283 23.1717C43.3283 18.0204 39.0693 13.8442 33.8157 13.8442C28.5621 13.8442 24.303 18.0204 24.303 23.1717H43.3283Z" fill="url(#paint1_linear_513_672)"/>
<path id="Vector_3" d="M26.3853 24.1929H33.0075V26.3899L26.3853 24.1929Z" fill="#096CC7"/>
<path id="Vector_4" d="M33.7317 24.1929L33.8169 26.8155L35.8978 27.6902H39.6137V24.1929H33.7317Z" fill="#096CC7"/>
<path id="Vector_5" d="M46.3957 24.1929H40.4059V27.6902H46.3957V24.1929Z" fill="#096CC7"/>
<path id="Vector_6" d="M53.2324 24.1929H47.2426V27.6902H53.2324V24.1929Z" fill="#096CC7"/>
<path id="Vector_7" d="M53.2324 28.2734H47.2426V31.7707H53.2324V28.2734Z" fill="#096CC7"/>
<path id="Vector_8" d="M60.0703 24.1929H54.0804V27.6902H60.0703V24.1929Z" fill="#096CC7"/>
<path id="Vector_9" d="M37.2346 28.4185L39.6138 29.6273V28.4185H37.2346Z" fill="#096CC7"/>
<path id="Vector_10" d="M40.4059 28.4185H46.3944V31.4419L40.4059 29.9302V28.4185Z" fill="#096CC7"/>
<path id="Vector_11" d="M54.0804 28.2734V31.7707L60.069 30.7068V28.2734H54.0804Z" fill="#096CC7"/>
<g id="Group">
<path id="Vector_12" d="M9.20641 38.499L8.67386 40.3593C8.3277 40.1765 7.96823 40.0395 7.59811 39.9481C7.22799 39.8567 6.84056 39.811 6.43848 39.811C5.21628 39.811 4.25902 40.1165 3.56537 40.7287C2.87173 41.341 2.52557 42.1791 2.52557 43.2457C2.52557 44.0237 2.73726 44.6334 3.16197 45.0746C3.58667 45.5171 4.17115 45.7378 4.91672 45.7378C5.0685 45.7378 5.22427 45.726 5.38403 45.7025C5.5438 45.679 5.71821 45.6438 5.9046 45.5968L6.31999 43.7039H4.79956L5.1577 42.0603H9.00537L7.91364 47.0693C7.45432 47.2181 6.96437 47.3291 6.44514 47.4035C5.9259 47.4779 5.35474 47.5145 4.73565 47.5145C3.24052 47.5145 2.08222 47.1385 1.2581 46.3866C0.435309 45.6346 0.022583 44.5785 0.022583 43.2196C0.022583 42.5316 0.138413 41.8893 0.370072 41.2914C0.601731 40.6948 0.942563 40.1713 1.3939 39.7209C1.95707 39.1426 2.61743 38.721 3.37632 38.4533C4.13387 38.1857 5.05785 38.0513 6.14558 38.0513C6.70476 38.0513 7.23731 38.0878 7.74456 38.1596C8.25181 38.2314 8.7391 38.345 9.20641 38.4977V38.499Z" fill="#085B91"/>
<path id="Vector_13" d="M11.5403 38.2759H15.0245C16.1255 38.2759 16.9523 38.4639 17.5075 38.8398C18.0627 39.2158 18.3396 39.7758 18.3396 40.5186C18.3396 41.1857 18.1186 41.7184 17.6766 42.1178C17.2346 42.5173 16.6088 42.7484 15.798 42.8123C16.0496 42.9651 16.244 43.1452 16.3825 43.3515C16.5209 43.5577 16.6314 43.858 16.714 44.2535L17.397 47.3318H14.9725L14.3228 44.4193C14.2616 44.1648 14.1511 43.9859 13.9887 43.8841C13.8262 43.7823 13.5693 43.7314 13.2178 43.7314H12.7758L12.0023 47.3318H9.58447L11.5403 38.2759ZM13.5746 39.9325L13.1392 42.0486H14.0166C14.5891 42.0486 15.0311 41.9455 15.3427 41.7392C15.6542 41.533 15.81 41.2432 15.81 40.8698C15.81 40.5591 15.7021 40.3254 15.4878 40.1688C15.2734 40.0121 14.9552 39.9325 14.5359 39.9325H13.5733H13.5746Z" fill="#085B91"/>
<path id="Vector_14" d="M23.1353 38.2759H26.1961L27.6846 47.3318H25.2348L24.9939 45.401H21.3739L20.2688 47.3318H17.6753L23.1353 38.2759ZM24.3708 40.0474L22.3231 43.6922H24.8128L24.3708 40.0474Z" fill="#085B91"/>
<path id="Vector_15" d="M30.3486 38.2759H33.0779C34.3773 38.2759 35.3346 38.4743 35.947 38.8712C36.5595 39.268 36.867 39.8881 36.867 40.7288C36.867 41.7653 36.5142 42.5813 35.8072 43.1765C35.1016 43.7718 34.1284 44.0682 32.8889 44.0682C32.7371 44.0682 32.552 44.0656 32.3337 44.059C32.1153 44.0525 31.8624 44.0434 31.5761 44.0303L30.8412 47.3318H28.3915L30.3473 38.2759H30.3486ZM32.4482 39.9077L31.9343 42.3358H32.584C33.1778 42.3358 33.6384 42.2157 33.9686 41.9755C34.2975 41.7353 34.4626 41.4037 34.4626 40.9782C34.4626 40.6296 34.3387 40.3646 34.0924 40.1818C33.8448 39.9991 33.488 39.9077 33.0207 39.9077H32.4482Z" fill="#085B91"/>
<path id="Vector_16" d="M38.7336 38.2759H41.2486L40.5137 41.6792H43.3735L44.1204 38.2759H46.6353L44.6795 47.3318H42.1513L42.99 43.4951H40.1169L39.2915 47.3318H36.7765L38.7323 38.2759H38.7336Z" fill="#085B91"/>
<path id="Vector_17" d="M48.4634 38.2759H50.9264L48.9573 47.3318H46.4943L48.4634 38.2759Z" fill="#085B91"/>
<path id="Vector_18" d="M60.3246 38.601L59.7135 40.443C59.3887 40.2432 59.0452 40.0944 58.683 39.9965C58.3209 39.8986 57.9321 39.8503 57.5168 39.8503C56.4037 39.8503 55.5343 40.1597 54.9099 40.7772C54.2855 41.3946 53.974 42.2523 53.974 43.3489C53.974 44.063 54.2096 44.6283 54.6823 45.0473C55.1549 45.4664 55.7953 45.6752 56.6061 45.6752C56.9656 45.6752 57.329 45.6282 57.6952 45.5355C58.0613 45.4416 58.4354 45.3019 58.8162 45.1152L58.5819 47.2052C58.1319 47.3162 57.6952 47.3997 57.2758 47.4572C56.8551 47.5146 56.4463 47.5433 56.0469 47.5433C54.5957 47.5433 53.4641 47.1674 52.6506 46.4154C51.8371 45.6635 51.4324 44.6204 51.4324 43.2862C51.4324 42.5983 51.5589 41.9325 51.8131 41.2915C52.0661 40.6505 52.4189 40.1023 52.8689 39.648C53.4108 39.0997 54.0272 38.7002 54.7182 38.4469C55.4092 38.1937 56.2293 38.0684 57.1786 38.0684C57.6725 38.0684 58.1798 38.1127 58.699 38.2028C59.2183 38.2929 59.7601 38.4261 60.3233 38.6049L60.3246 38.601Z" fill="#085B91"/>
<path id="Vector_19" d="M67.9999 38.4792L67.4274 40.2442C67.0893 40.0954 66.7471 39.9844 66.4009 39.91C66.0548 39.8356 65.6993 39.799 65.3345 39.799C64.7847 39.799 64.3626 39.8787 64.071 40.0379C63.7781 40.1972 63.633 40.4283 63.633 40.7298C63.633 41.0575 63.9619 41.3538 64.6209 41.6214C64.8845 41.7272 65.0935 41.8173 65.2453 41.8891C66.0122 42.2546 66.5341 42.611 66.811 42.9595C67.0879 43.3081 67.2264 43.7519 67.2264 44.2911C67.2264 45.2806 66.8403 46.0704 66.0694 46.6579C65.2986 47.2466 64.2521 47.5404 62.9301 47.5404C62.3709 47.5404 61.8343 47.4986 61.3218 47.4164C60.8092 47.3341 60.3126 47.2088 59.8359 47.043L60.3685 45.1762C60.7546 45.3629 61.1274 45.5039 61.4895 45.5966C61.8516 45.6905 62.2058 45.7362 62.5519 45.7362C63.1843 45.7362 63.6823 45.6344 64.0471 45.4308C64.4105 45.2271 64.5929 44.9504 64.5929 44.6018C64.5929 44.1645 64.1097 43.7559 63.1431 43.3786C62.9008 43.2859 62.7117 43.2102 62.5772 43.1554C62.0527 42.9386 61.6626 42.6541 61.407 42.3016C61.1513 41.9491 61.0235 41.5235 61.0235 41.0275C61.0235 40.1528 61.3817 39.4413 62.0953 38.8957C62.8102 38.35 63.7489 38.0771 64.9098 38.0771C65.5555 38.0771 66.1387 38.1111 66.6619 38.179C67.1851 38.2469 67.6298 38.3474 67.9973 38.4779L67.9999 38.4792Z" fill="#085B91"/>
</g>
<g id="Group_2">
<path id="Vector_20" d="M0.694978 50.7231H1.56437L0.869388 53.9215H0L0.694978 50.7231Z" fill="#F7931E"/>
<path id="Vector_21" d="M2.21937 50.7231H3.57205L3.64261 52.3484C3.64394 52.3824 3.64527 52.4189 3.6466 52.4581C3.6466 52.4959 3.6466 52.5443 3.6466 52.603C3.6466 52.6526 3.6466 52.71 3.64261 52.774C3.63862 52.838 3.63728 52.9111 3.63196 52.9907C3.66125 52.8941 3.6972 52.7936 3.74113 52.6852C3.78507 52.5782 3.83699 52.4607 3.89557 52.3354L4.65046 50.7245H6.0524L5.3481 53.9228H4.54262L4.95401 51.992C4.97532 51.885 5.00061 51.7727 5.03123 51.6539C5.06186 51.5351 5.09381 51.4098 5.13109 51.2754H5.10313L3.83433 53.9228H3.03151L2.91435 51.2754H2.87574C2.83846 51.4829 2.80784 51.6539 2.78387 51.7897C2.75991 51.9255 2.74393 52.0103 2.73594 52.0456L2.32322 53.9228H1.52173L2.21937 50.7245V50.7231Z" fill="#F7931E"/>
<path id="Vector_22" d="M6.67951 50.7235H7.64342C8.10275 50.7235 8.44092 50.794 8.6566 50.9337C8.87362 51.0746 8.98146 51.2926 8.98146 51.5903C8.98146 51.9558 8.85631 52.2443 8.60734 52.4545C8.35837 52.6647 8.01488 52.7691 7.57686 52.7691C7.5236 52.7691 7.45836 52.7691 7.38114 52.7652C7.30392 52.7626 7.21472 52.76 7.11354 52.7548L6.85392 53.9205H5.98853L6.67951 50.7222V50.7235ZM7.42109 51.2992L7.24002 52.1569H7.46901C7.67804 52.1569 7.8418 52.1151 7.95763 52.0302C8.07346 51.9454 8.13204 51.8279 8.13204 51.6778C8.13204 51.555 8.0881 51.4611 8.00156 51.3958C7.91503 51.3305 7.78854 51.2992 7.62345 51.2992H7.42109Z" fill="#F7931E"/>
<path id="Vector_23" d="M9.72964 50.7231H10.6083L10.0478 53.2844H11.3978L11.2554 53.9215H9.03333L9.7283 50.7231H9.72964Z" fill="#F7931E"/>
<path id="Vector_24" d="M13.2751 50.7231H14.3562L14.8821 53.9215H14.0167L13.9315 53.2401H12.6534L12.2633 53.9215H11.3473L13.2751 50.7231ZM13.7118 51.3485L12.9889 52.6356H13.8676L13.7118 51.3485Z" fill="#F7931E"/>
<path id="Vector_25" d="M15.8088 50.7235H16.8805L17.3878 52.3462C17.433 52.4897 17.469 52.6138 17.4929 52.7182C17.5169 52.8213 17.5356 52.9205 17.5462 53.0158H17.5848C17.5915 52.9271 17.6035 52.8292 17.6221 52.7208C17.6407 52.6125 17.666 52.4871 17.698 52.3422L18.0468 50.7235H18.8416L18.1467 53.9218H17.0749L16.5197 52.1321C16.4931 52.0511 16.4718 51.9676 16.4531 51.8827C16.4345 51.7979 16.4212 51.7091 16.4119 51.6164H16.3773C16.3613 51.7339 16.3453 51.8449 16.3293 51.9506C16.3134 52.0563 16.2947 52.1556 16.2747 52.2482L15.9139 53.9205H15.1151L15.8101 50.7222L15.8088 50.7235Z" fill="#F7931E"/>
<path id="Vector_26" d="M19.2251 50.7231H21.7507L21.6149 51.3393H20.7815L20.2209 53.9215H19.3422L19.9028 51.3393H19.0946L19.2251 50.7231Z" fill="#F7931E"/>
<path id="Vector_27" d="M22.9636 50.7231H24.0447L24.5706 53.9215H23.7052L23.62 53.2401H22.3418L21.9518 53.9215H21.0358L22.9636 50.7231ZM23.4003 51.3485L22.6774 52.6356H23.5561L23.4003 51.3485Z" fill="#F7931E"/>
<path id="Vector_28" d="M25.4985 50.7235H26.5702L27.0775 52.3462C27.1227 52.4897 27.1587 52.6138 27.1826 52.7182C27.2066 52.8213 27.2253 52.9205 27.2359 53.0158H27.2745C27.2812 52.9271 27.2932 52.8292 27.3118 52.7208C27.3304 52.6125 27.3557 52.4871 27.3877 52.3422L27.7365 50.7235H28.5313L27.8364 53.9218H26.7646L26.2094 52.1321C26.1828 52.0511 26.1615 51.9676 26.1428 51.8827C26.1242 51.7979 26.1109 51.7091 26.1016 51.6164H26.067C26.051 51.7339 26.035 51.8449 26.019 51.9506C26.003 52.0563 25.9844 52.1556 25.9644 52.2482L25.6036 53.9205H24.8048L25.4998 50.7222L25.4985 50.7235Z" fill="#F7931E"/>
<path id="Vector_29" d="M29.1678 50.7231H30.2542C30.828 50.7231 31.2554 50.8393 31.535 51.0717C31.8146 51.3041 31.9557 51.6592 31.9557 52.137C31.9557 52.4111 31.9064 52.6657 31.8106 52.8993C31.7134 53.133 31.5763 53.3249 31.3979 53.475C31.2155 53.6317 31.0024 53.7453 30.7575 53.8158C30.5125 53.8876 30.2076 53.9228 29.8415 53.9228H28.4781L29.1691 50.7245L29.1678 50.7231ZM29.9254 51.3393L29.5006 53.2884H29.8681C30.0612 53.2884 30.2223 53.2675 30.3541 53.2244C30.4845 53.1813 30.599 53.1134 30.6949 53.0181C30.8134 52.9033 30.9039 52.7649 30.9692 52.6056C31.0344 52.4463 31.0663 52.2806 31.0663 52.1095C31.0663 51.8654 30.9958 51.6748 30.8547 51.5417C30.7135 51.4085 30.5138 51.3406 30.2529 51.3406H29.924L29.9254 51.3393Z" fill="#F7931E"/>
<path id="Vector_30" d="M34.1884 50.6489C34.6398 50.6489 34.9926 50.7703 35.2469 51.0118C35.5011 51.2533 35.6276 51.5902 35.6276 52.021C35.6276 52.2507 35.5917 52.4766 35.5198 52.6998C35.4479 52.923 35.3494 53.1175 35.2242 53.2833C35.0472 53.5157 34.8315 53.6932 34.5798 53.8159C34.3282 53.9387 34.05 54 33.7451 54C33.2911 54 32.9356 53.8773 32.6813 53.6319C32.427 53.3865 32.2992 53.0457 32.2992 52.611C32.2992 52.3826 32.3311 52.1632 32.3951 51.9518C32.459 51.7403 32.5482 51.5562 32.6653 51.4009C32.8517 51.1489 33.0714 50.9609 33.3244 50.8356C33.5773 50.7103 33.8649 50.6489 34.1897 50.6489H34.1884ZM34.7276 51.9766C34.7276 51.7429 34.6757 51.5614 34.5719 51.4335C34.468 51.3056 34.3202 51.2416 34.1312 51.2416C33.998 51.2416 33.8729 51.2795 33.7557 51.3565C33.6386 51.4335 33.5334 51.5458 33.4402 51.6946C33.3643 51.816 33.3017 51.9635 33.2538 52.1371C33.2059 52.3108 33.1832 52.4792 33.1832 52.645C33.1832 52.8695 33.2365 53.047 33.3417 53.1776C33.4468 53.3081 33.592 53.3721 33.7757 53.3721C33.9088 53.3721 34.0326 53.3355 34.1458 53.2611C34.259 53.1867 34.3682 53.0718 34.472 52.9178C34.5479 52.799 34.6105 52.6541 34.6584 52.4818C34.7063 52.3095 34.729 52.1411 34.729 51.9779L34.7276 51.9766Z" fill="#F7931E"/>
<path id="Vector_31" d="M37.6527 50.7231H40.177L40.0412 51.3393H39.2077L38.6472 53.9215H37.7685L38.329 51.3393H37.5209L37.6513 50.7231H37.6527Z" fill="#F7931E"/>
<path id="Vector_32" d="M40.5404 50.7231H42.8384L42.7079 51.3171H41.278L41.1422 51.9581H42.4869L42.3631 52.5338H41.0157L40.8453 53.3223H42.3258L42.1953 53.9215H39.8455L40.5404 50.7231Z" fill="#F7931E"/>
<path id="Vector_33" d="M46.031 50.8384L45.8153 51.4885C45.7008 51.418 45.5796 51.3658 45.4518 51.3305C45.324 51.2966 45.1869 51.2783 45.0404 51.2783C44.6477 51.2783 44.3401 51.388 44.1205 51.606C43.8995 51.824 43.7903 52.1269 43.7903 52.5146C43.7903 52.7665 43.8742 52.9663 44.0406 53.1138C44.207 53.2613 44.4333 53.3357 44.7196 53.3357C44.8461 53.3357 44.9752 53.3187 45.1043 53.2861C45.2335 53.2535 45.3653 53.2039 45.4998 53.1373L45.4172 53.8762C45.2575 53.9153 45.1043 53.9454 44.9552 53.9649C44.8075 53.9858 44.6623 53.995 44.5212 53.995C44.0086 53.995 43.6092 53.8618 43.3216 53.5968C43.0341 53.3305 42.8916 52.9624 42.8916 52.4911C42.8916 52.2483 42.9369 52.0133 43.0261 51.7861C43.1153 51.559 43.2404 51.3658 43.3989 51.2052C43.5906 51.012 43.8076 50.8697 44.0526 50.7809C44.2975 50.6922 44.5864 50.6465 44.9219 50.6465C45.0964 50.6465 45.2748 50.6622 45.4585 50.6935C45.6422 50.7248 45.8339 50.7718 46.0323 50.8358L46.031 50.8384Z" fill="#F7931E"/>
<path id="Vector_34" d="M46.4876 50.7235H47.5594L48.0666 52.3462C48.1119 52.4897 48.1478 52.6138 48.1718 52.7182C48.1957 52.8213 48.2144 52.9205 48.225 53.0158H48.2636C48.2703 52.9271 48.2823 52.8292 48.3009 52.7208C48.3196 52.6125 48.3449 52.4871 48.3768 52.3422L48.7256 50.7235H49.5205L48.8255 53.9218H47.7537L47.1985 52.1321C47.1719 52.0511 47.1506 51.9676 47.132 51.8827C47.1133 51.7979 47.1 51.7091 47.0907 51.6164H47.0561C47.0414 51.7339 47.0241 51.8449 47.0082 51.9506C46.9909 52.0563 46.9735 52.1556 46.9536 52.2482L46.5928 53.9205H45.7939L46.4889 50.7222L46.4876 50.7235Z" fill="#F7931E"/>
<path id="Vector_35" d="M51.5443 50.6489C51.9956 50.6489 52.3484 50.7703 52.6027 51.0118C52.857 51.2533 52.9835 51.5902 52.9835 52.021C52.9835 52.2507 52.9475 52.4766 52.8756 52.6998C52.8037 52.923 52.7052 53.1175 52.5801 53.2833C52.403 53.5157 52.1873 53.6932 51.9357 53.8159C51.684 53.9387 51.4058 54 51.1009 54C50.6469 54 50.2914 53.8773 50.0371 53.6319C49.7828 53.3865 49.655 53.0457 49.655 52.611C49.655 52.3826 49.687 52.1632 49.7509 51.9518C49.8148 51.7403 49.904 51.5562 50.0212 51.4009C50.2075 51.1489 50.4272 50.9609 50.6802 50.8356C50.9332 50.7103 51.2207 50.6489 51.5456 50.6489H51.5443ZM52.0835 51.9766C52.0835 51.7429 52.0315 51.5614 51.9277 51.4335C51.8238 51.3056 51.6761 51.2416 51.487 51.2416C51.3539 51.2416 51.2287 51.2795 51.1116 51.3565C50.9944 51.4335 50.8892 51.5458 50.796 51.6946C50.7188 51.816 50.6576 51.9635 50.6096 52.1371C50.5617 52.3108 50.5377 52.4792 50.5377 52.645C50.5377 52.8695 50.591 53.047 50.6962 53.1776C50.8013 53.3068 50.9465 53.3721 51.1302 53.3721C51.2633 53.3721 51.3872 53.3355 51.5003 53.2611C51.6135 53.1867 51.7227 53.0718 51.8265 52.9178C51.9024 52.799 51.965 52.6541 52.0129 52.4818C52.0608 52.3095 52.0835 52.1411 52.0835 51.9779V51.9766Z" fill="#F7931E"/>
<path id="Vector_36" d="M53.8954 50.7231H54.7741L54.2136 53.2844H55.5636L55.4212 53.9215H53.1991L53.8941 50.7231H53.8954Z" fill="#F7931E"/>
<path id="Vector_37" d="M57.7737 50.6489C58.2251 50.6489 58.5779 50.7703 58.8322 51.0118C59.0865 51.2533 59.213 51.5902 59.213 52.021C59.213 52.2507 59.177 52.4766 59.1051 52.6998C59.0332 52.923 58.9347 53.1175 58.8096 53.2833C58.6325 53.5157 58.4168 53.6932 58.1652 53.8159C57.9135 53.9387 57.6353 54 57.3304 54C56.8764 54 56.5209 53.8773 56.2666 53.6319C56.0123 53.3865 55.8845 53.0457 55.8845 52.611C55.8845 52.3826 55.9165 52.1632 55.9804 51.9518C56.0443 51.7403 56.1335 51.5562 56.2506 51.4009C56.437 51.1489 56.6567 50.9609 56.9097 50.8356C57.1626 50.7103 57.4502 50.6489 57.7751 50.6489H57.7737ZM58.3129 51.9766C58.3129 51.7429 58.261 51.5614 58.1572 51.4335C58.0533 51.3056 57.9056 51.2416 57.7165 51.2416C57.5834 51.2416 57.4582 51.2795 57.341 51.3565C57.2239 51.4335 57.1187 51.5458 57.0255 51.6946C56.9483 51.816 56.887 51.9635 56.8391 52.1371C56.7912 52.3108 56.7672 52.4792 56.7672 52.645C56.7672 52.8695 56.8205 53.047 56.9257 53.1776C57.0308 53.3068 57.176 53.3721 57.3597 53.3721C57.4928 53.3721 57.6166 53.3355 57.7298 53.2611C57.843 53.1867 57.9521 53.0718 58.056 52.9178C58.1319 52.799 58.1945 52.6541 58.2424 52.4818C58.2903 52.3095 58.3129 52.1411 58.3129 51.9779V51.9766Z" fill="#F7931E"/>
<path id="Vector_38" d="M62.7996 50.8017L62.6119 51.4583C62.4894 51.3943 62.3629 51.346 62.2325 51.3134C62.102 51.2808 61.9649 51.2651 61.8224 51.2651C61.391 51.2651 61.0529 51.3735 60.8079 51.5889C60.5629 51.8043 60.4404 52.1019 60.4404 52.4779C60.4404 52.752 60.515 52.9674 60.6654 53.1241C60.8159 53.2807 61.0223 53.3577 61.2859 53.3577C61.3391 53.3577 61.395 53.3538 61.451 53.346C61.5069 53.3382 61.5681 53.3251 61.6347 53.3094L61.7811 52.6411H61.2446L61.3711 52.0601H62.7304L62.3443 53.829C62.1819 53.8812 62.0088 53.9204 61.8251 53.9478C61.6413 53.9739 61.4403 53.987 61.222 53.987C60.6934 53.987 60.2847 53.8538 59.9944 53.5888C59.7042 53.3238 59.5577 52.9504 59.5577 52.47C59.5577 52.2272 59.599 52.0001 59.6802 51.7899C59.7614 51.5784 59.8826 51.3943 60.041 51.2351C60.2394 51.0314 60.4737 50.8813 60.7413 50.7873C61.0089 50.6933 61.3351 50.645 61.7186 50.645C61.9156 50.645 62.1047 50.6581 62.2831 50.6829C62.4615 50.709 62.6345 50.7481 62.7996 50.8017Z" fill="#F7931E"/>
<path id="Vector_39" d="M63.6371 50.7231H64.5078L63.8129 53.9215H62.9435L63.6385 50.7231H63.6371Z" fill="#F7931E"/>
<path id="Vector_40" d="M66.1521 50.7231H67.2331L67.759 53.9215H66.8936L66.8084 53.2401H65.5303L65.1402 53.9215H64.2242L66.1521 50.7231ZM66.5888 51.3485L65.8658 52.6356H66.7445L66.5888 51.3485Z" fill="#F7931E"/>
</g>
</g>
<defs>
<linearGradient id="paint0_linear_513_672" x1="10.4593" y1="11.5128" x2="57.0029" y2="11.5128" gradientUnits="userSpaceOnUse">
<stop stop-color="#FCEE21"/>
<stop offset="1" stop-color="#F7931E"/>
</linearGradient>
<linearGradient id="paint1_linear_513_672" x1="24.3043" y1="18.5086" x2="43.3283" y2="18.5086" gradientUnits="userSpaceOnUse">
<stop stop-color="#FCEE21"/>
<stop offset="1" stop-color="#F7931E"/>
</linearGradient>
<clipPath id="clip0_513_672">
<rect width="68" height="54" fill="white"/>
</clipPath>
</defs>
</svg>
