<svg width="142" height="115" viewBox="0 0 142 115" fill="none" xmlns="http://www.w3.org/2000/svg">
<g id="logo" clip-path="url(#clip0_172_1427)">
<path id="Vector" d="M119.035 49.0184H93.2042C93.2042 49.0184 93.5823 28.5429 70.6149 26.681C70.6149 26.681 49.5102 26.681 47.9561 49.0184H27.7244L42.0592 46.5368L21.8386 37.8497L43.302 39.0919L25.92 25.4415L47.0247 32.8864L33.3682 14.8925L51.3702 26.681L44.5419 6.82517L58.1984 22.9571L56.3357 1.86191L65.6466 21.098L69.3749 0L73.7204 20.4755L82.4114 1.23942L81.1686 23.5768L94.8251 5.58297L87.3769 27.3007L105.379 13.6503L92.9651 32.2639L112.702 24.5078L96.6878 37.8469L117.793 36.6047L98.5478 45.9115L119.033 49.0128L119.035 49.0184Z" fill="url(#paint0_linear_172_1427)"/>
<path id="Vector_2" d="M90.4797 49.327C90.4797 38.3611 81.5857 29.4712 70.615 29.4712C59.6442 29.4712 50.7502 38.3611 50.7502 49.327H90.4797Z" fill="url(#paint1_linear_172_1427)"/>
<path id="Vector_3" d="M55.0984 51.5H68.9273V56.177L55.0984 51.5Z" fill="white"/>
<path id="Vector_4" d="M70.4398 51.5L70.6177 57.083L74.9632 58.9449H82.7228V51.5H70.4398Z" fill="white"/>
<path id="Vector_5" d="M96.8853 51.5H84.3771V58.9449H96.8853V51.5Z" fill="white"/>
<path id="Vector_6" d="M111.162 51.5H98.6535V58.9449H111.162V51.5Z" fill="white"/>
<path id="Vector_7" d="M111.162 60.187H98.6535V67.6319H111.162V60.187Z" fill="white"/>
<path id="Vector_8" d="M125.441 51.5H112.933V58.9449H125.441V51.5Z" fill="white"/>
<path id="Vector_9" d="M77.7545 60.4956L82.7228 63.0689V60.4956H77.7545Z" fill="white"/>
<path id="Vector_10" d="M84.3771 60.4956H96.8825V66.9317L84.3771 63.7137V60.4956Z" fill="white"/>
<path id="Vector_11" d="M112.933 60.187V67.6319L125.438 65.367V60.187H112.933Z" fill="white"/>
<g id="Group">
<path id="Vector_12" d="M19.2252 81.9549L18.1131 85.9149C17.3903 85.5259 16.6396 85.2341 15.8667 85.0396C15.0938 84.845 14.2848 84.7478 13.4451 84.7478C10.8929 84.7478 8.89392 85.398 7.44542 86.7014C5.99692 88.0047 5.27406 89.7888 5.27406 92.0593C5.27406 93.7155 5.71612 95.0133 6.60301 95.9526C7.4899 96.8947 8.71042 97.3643 10.2673 97.3643C10.5843 97.3643 10.9096 97.3393 11.2432 97.2893C11.5768 97.2393 11.941 97.1642 12.3303 97.0642L13.1977 93.0347H10.0227L10.7706 89.5359H18.8054L16.5256 100.199C15.5665 100.516 14.5433 100.752 13.459 100.91C12.3748 101.069 11.182 101.147 9.88924 101.147C6.76705 101.147 4.34825 100.346 2.62729 98.7455C0.909111 97.1448 0.0472412 94.8966 0.0472412 92.0037C0.0472412 90.5392 0.289121 89.1719 0.77288 87.8991C1.25664 86.6291 1.96838 85.5148 2.91087 84.556C4.08691 83.3249 5.4659 82.4273 7.05063 81.8576C8.63258 81.2879 10.5621 81.0017 12.8335 81.0017C14.0012 81.0017 15.1133 81.0795 16.1725 81.2324C17.2318 81.3852 18.2494 81.627 19.2252 81.9521V81.9549Z" fill="white"/>
<path id="Vector_13" d="M24.099 81.4795H31.3748C33.6741 81.4795 35.4006 81.8797 36.56 82.68C37.7193 83.4803 38.2976 84.6725 38.2976 86.2538C38.2976 87.6738 37.8361 88.8077 36.913 89.658C35.99 90.5084 34.6833 91.0003 32.9901 91.1364C33.5156 91.4616 33.9215 91.8451 34.2107 92.2841C34.4998 92.7232 34.7306 93.3624 34.9029 94.2044L36.3292 100.757H31.2664L29.9097 94.5574C29.7818 94.0155 29.551 93.6347 29.2118 93.418C28.8726 93.2012 28.336 93.0928 27.6021 93.0928H26.679L25.0637 100.757H20.0148L24.099 81.4795ZM28.3472 85.006L27.438 89.5107H29.2702C30.4657 89.5107 31.3887 89.2912 32.0393 88.8521C32.6899 88.413 33.0152 87.7961 33.0152 87.0013C33.0152 86.3399 32.79 85.8425 32.3424 85.509C31.8947 85.1755 31.2303 85.006 30.3545 85.006H28.3444H28.3472Z" fill="white"/>
<path id="Vector_14" d="M48.3119 81.4795H54.7037L57.812 100.757H52.6963L52.1931 96.6471H44.6337L42.3261 100.757H36.9102L48.3119 81.4795ZM50.892 85.2506L46.616 93.0095H51.815L50.892 85.2506Z" fill="white"/>
<path id="Vector_15" d="M63.3753 81.4795H69.0747C71.7882 81.4795 73.7872 81.9019 75.0661 82.7467C76.345 83.5915 76.9872 84.9115 76.9872 86.7012C76.9872 88.9077 76.2505 90.6446 74.7742 91.9118C73.3007 93.179 71.2683 93.8098 68.6799 93.8098C68.363 93.8098 67.9765 93.8043 67.5206 93.7904C67.0646 93.7765 66.5364 93.757 65.9386 93.7292L64.4039 100.757H59.2883L63.3725 81.4795H63.3753ZM67.7597 84.9532L66.6865 90.1221H68.0433C69.2832 90.1221 70.2452 89.8664 70.9347 89.3551C71.6214 88.8438 71.9662 88.1379 71.9662 87.232C71.9662 86.49 71.7076 85.9258 71.1933 85.5368C70.6761 85.1477 69.931 84.9532 68.9552 84.9532H67.7597Z" fill="white"/>
<path id="Vector_16" d="M80.8851 81.4795H86.1369L84.6022 88.7243H90.5742L92.1339 81.4795H97.3857L93.3016 100.757H88.0219L89.7735 92.5898H83.7737L82.05 100.757H76.7982L80.8823 81.4795H80.8851Z" fill="white"/>
<path id="Vector_17" d="M101.203 81.4795H106.346L102.234 100.757H97.091L101.203 81.4795Z" fill="white"/>
<path id="Vector_18" d="M125.972 82.1714L124.696 86.0926C124.018 85.6674 123.3 85.3506 122.544 85.1422C121.788 84.9337 120.976 84.8309 120.109 84.8309C117.784 84.8309 115.969 85.4895 114.665 86.804C113.361 88.1184 112.71 89.9442 112.71 92.2786C112.71 93.7987 113.202 95.002 114.189 95.894C115.176 96.7861 116.514 97.2307 118.207 97.2307C118.958 97.2307 119.717 97.1307 120.481 96.9333C121.246 96.7333 122.027 96.4359 122.822 96.0385L122.333 100.488C121.393 100.724 120.481 100.902 119.605 101.024C118.727 101.146 117.873 101.207 117.039 101.207C114.009 101.207 111.646 100.407 109.947 98.8064C108.248 97.2057 107.403 94.9853 107.403 92.1452C107.403 90.6806 107.667 89.2634 108.198 87.8989C108.726 86.5344 109.463 85.3672 110.403 84.4002C111.534 83.233 112.822 82.3826 114.264 81.8435C115.707 81.3044 117.42 81.0376 119.402 81.0376C120.434 81.0376 121.493 81.1321 122.577 81.3238C123.662 81.5156 124.793 81.799 125.969 82.1798L125.972 82.1714Z" fill="white"/>
<path id="Vector_19" d="M142 81.9131L140.804 85.6702C140.098 85.3534 139.384 85.1172 138.661 84.9588C137.938 84.8004 137.196 84.7226 136.434 84.7226C135.286 84.7226 134.404 84.8921 133.795 85.2312C133.184 85.5702 132.881 86.0621 132.881 86.704C132.881 87.4015 133.568 88.0324 134.944 88.602C135.494 88.8271 135.931 89.0189 136.248 89.1717C137.849 89.9499 138.939 90.7085 139.517 91.4505C140.095 92.1925 140.385 93.1373 140.385 94.2851C140.385 96.3915 139.578 98.0728 137.969 99.3233C136.359 100.577 134.174 101.202 131.413 101.202C130.245 101.202 129.125 101.113 128.054 100.938C126.984 100.763 125.947 100.496 124.952 100.143L126.064 96.1692C126.87 96.5666 127.648 96.8667 128.405 97.064C129.161 97.2641 129.9 97.3614 130.623 97.3614C131.944 97.3614 132.984 97.1446 133.745 96.7111C134.504 96.2776 134.885 95.6884 134.885 94.9465C134.885 94.0155 133.876 93.1457 131.858 92.3426C131.352 92.1453 130.957 91.9841 130.676 91.8673C129.581 91.406 128.766 90.8002 128.232 90.0499C127.698 89.2996 127.432 88.3936 127.432 87.3376C127.432 85.4757 128.179 83.9612 129.67 82.7996C131.163 81.6379 133.123 81.0571 135.547 81.0571C136.895 81.0571 138.113 81.1294 139.206 81.2739C140.298 81.4184 141.227 81.6324 141.994 81.9103L142 81.9131Z" fill="white"/>
</g>
<g id="Group_2">
<path id="Vector_20" d="M1.45128 107.977H3.26676L1.81549 114.785H0L1.45128 107.977Z" fill="#D6D6D6"/>
<path id="Vector_21" d="M4.63469 107.977H7.4594L7.60676 111.437C7.60954 111.509 7.61232 111.587 7.6151 111.67C7.6151 111.751 7.6151 111.853 7.6151 111.979C7.6151 112.084 7.6151 112.206 7.60676 112.343C7.59841 112.479 7.59563 112.634 7.58451 112.804C7.64568 112.598 7.72074 112.384 7.81249 112.154C7.90424 111.926 8.01267 111.676 8.135 111.409L9.71139 107.98H12.639L11.1682 114.788H9.48619L10.3453 110.678C10.3898 110.45 10.4426 110.211 10.5065 109.958C10.5705 109.705 10.6372 109.439 10.715 109.152H10.6567L8.00711 114.788H6.33063L6.08597 109.152H6.00535C5.9275 109.594 5.86355 109.958 5.81351 110.247C5.76347 110.536 5.7301 110.717 5.71342 110.792L4.85155 114.788H3.17786L4.63469 107.98V107.977Z" fill="#D6D6D6"/>
<path id="Vector_22" d="M13.9484 107.977H15.9613C16.9204 107.977 17.6266 108.127 18.077 108.424C18.5302 108.724 18.7554 109.189 18.7554 109.822C18.7554 110.6 18.494 111.214 17.9741 111.662C17.4542 112.109 16.7369 112.332 15.8222 112.332C15.711 112.332 15.5748 112.332 15.4135 112.323C15.2523 112.318 15.066 112.312 14.8547 112.301L14.3126 114.783H12.5054L13.9484 107.974V107.977ZM15.497 109.202L15.1188 111.028H15.597C16.0335 111.028 16.3755 110.939 16.6174 110.759C16.8593 110.578 16.9816 110.328 16.9816 110.008C16.9816 109.747 16.8898 109.547 16.7091 109.408C16.5284 109.269 16.2643 109.202 15.9195 109.202H15.497Z" fill="#D6D6D6"/>
<path id="Vector_23" d="M20.3179 107.977H22.1528L20.9824 113.429H23.8015L23.504 114.785H18.8638L20.3151 107.977H20.3179Z" fill="#D6D6D6"/>
<path id="Vector_24" d="M27.7217 107.977H29.9792L31.0774 114.785H29.2703L29.0923 113.335H26.4233L25.6087 114.785H23.6959L27.7217 107.977ZM28.6336 109.308L27.1239 112.048H28.9589L28.6336 109.308Z" fill="#D6D6D6"/>
<path id="Vector_25" d="M33.0124 107.977H35.2505L36.3098 111.431C36.4043 111.737 36.4793 112.001 36.5294 112.223C36.5794 112.443 36.6184 112.654 36.6406 112.857H36.7212C36.7351 112.668 36.7601 112.459 36.7991 112.229C36.838 111.998 36.8908 111.731 36.9575 111.423L37.686 107.977H39.3458L37.8945 114.785H35.6564L34.497 110.975C34.4414 110.803 34.397 110.625 34.358 110.445C34.3191 110.264 34.2913 110.075 34.2718 109.878H34.1996C34.1662 110.128 34.1328 110.364 34.0995 110.589C34.0661 110.814 34.0272 111.025 33.9855 111.223L33.232 114.783H31.5639L33.0152 107.974L33.0124 107.977Z" fill="#D6D6D6"/>
<path id="Vector_26" d="M40.1465 107.977H45.4206L45.137 109.288H43.3966L42.2261 114.785H40.3911L41.5616 109.288H39.874L40.1465 107.977Z" fill="#D6D6D6"/>
<path id="Vector_27" d="M47.9534 107.977H50.2109L51.3091 114.785H49.502L49.324 113.335H46.655L45.8404 114.785H43.9276L47.9534 107.977ZM48.8653 109.308L47.3556 112.048H49.1906L48.8653 109.308Z" fill="#D6D6D6"/>
<path id="Vector_28" d="M53.2469 107.977H55.485L56.5442 111.431C56.6388 111.737 56.7138 112.001 56.7639 112.223C56.8139 112.443 56.8529 112.654 56.8751 112.857H56.9557C56.9696 112.668 56.9946 112.459 57.0336 112.229C57.0725 111.998 57.1253 111.731 57.192 111.423L57.9205 107.977H59.5803L58.129 114.785H55.8909L54.7315 110.975C54.6759 110.803 54.6315 110.625 54.5925 110.445C54.5536 110.264 54.5258 110.075 54.5063 109.878H54.4341C54.4007 110.128 54.3673 110.364 54.334 110.589C54.3006 110.814 54.2617 111.025 54.22 111.223L53.4665 114.783H51.7984L53.2497 107.974L53.2469 107.977Z" fill="#D6D6D6"/>
<path id="Vector_29" d="M60.9092 107.977H63.1778C64.3761 107.977 65.2685 108.224 65.8524 108.719C66.4362 109.213 66.7309 109.969 66.7309 110.986C66.7309 111.57 66.6281 112.112 66.4279 112.609C66.2249 113.107 65.9386 113.515 65.566 113.835C65.1851 114.168 64.7403 114.41 64.2287 114.56C63.7172 114.713 63.0805 114.788 62.3159 114.788H59.469L60.9119 107.98L60.9092 107.977ZM62.4911 109.288L61.6042 113.438H62.3715C62.7747 113.438 63.1111 113.393 63.3863 113.301C63.6588 113.21 63.8979 113.065 64.0981 112.862C64.3455 112.618 64.5346 112.323 64.6708 111.984C64.807 111.645 64.8738 111.292 64.8738 110.928C64.8738 110.408 64.7264 110.003 64.4317 109.719C64.137 109.436 63.72 109.291 63.175 109.291H62.4883L62.4911 109.288Z" fill="#D6D6D6"/>
<path id="Vector_30" d="M71.3934 107.819C72.3359 107.819 73.0726 108.077 73.6037 108.591C74.1347 109.105 74.3988 109.822 74.3988 110.739C74.3988 111.228 74.3237 111.709 74.1736 112.184C74.0235 112.66 73.8177 113.074 73.5564 113.427C73.1866 113.921 72.7362 114.299 72.2108 114.56C71.6853 114.822 71.1042 114.952 70.4676 114.952C69.5195 114.952 68.7772 114.691 68.2462 114.169C67.7151 113.646 67.4482 112.921 67.4482 111.995C67.4482 111.509 67.515 111.042 67.6484 110.592C67.7819 110.142 67.9681 109.75 68.2128 109.419C68.602 108.883 69.0608 108.483 69.589 108.216C70.1173 107.949 70.7178 107.819 71.3962 107.819H71.3934ZM72.5194 110.645C72.5194 110.147 72.4109 109.761 72.1941 109.489C71.9772 109.216 71.6686 109.08 71.2738 109.08C70.9958 109.08 70.7345 109.161 70.4898 109.325C70.2451 109.489 70.0255 109.728 69.8309 110.045C69.6724 110.303 69.5418 110.617 69.4417 110.987C69.3416 111.356 69.2943 111.715 69.2943 112.068C69.2943 112.546 69.4055 112.924 69.6252 113.201C69.8448 113.479 70.1478 113.616 70.5315 113.616C70.8095 113.616 71.0681 113.538 71.3044 113.379C71.5407 113.221 71.7687 112.976 71.9856 112.648C72.144 112.396 72.2747 112.087 72.3748 111.72C72.4749 111.353 72.5222 110.995 72.5222 110.648L72.5194 110.645Z" fill="#D6D6D6"/>
<path id="Vector_31" d="M78.6276 107.977H83.8989L83.6153 109.288H81.8749L80.7044 114.785H78.8695L80.04 109.288H78.3524L78.6248 107.977H78.6276Z" fill="#D6D6D6"/>
<path id="Vector_32" d="M84.6578 107.977H89.4565L89.184 109.241H86.1981L85.9145 110.606H88.7225L88.464 111.831H85.6504L85.2945 113.51H88.3861L88.1136 114.785H83.2065L84.6578 107.977Z" fill="#D6D6D6"/>
<path id="Vector_33" d="M96.1235 108.221L95.6731 109.605C95.434 109.455 95.181 109.344 94.9141 109.269C94.6472 109.197 94.3609 109.158 94.055 109.158C93.2349 109.158 92.5926 109.391 92.1339 109.855C91.6724 110.319 91.4444 110.964 91.4444 111.789C91.4444 112.326 91.6196 112.751 91.9671 113.065C92.3146 113.379 92.7873 113.537 93.385 113.537C93.6491 113.537 93.9188 113.501 94.1885 113.432C94.4582 113.362 94.7334 113.257 95.0142 113.115L94.8418 114.688C94.5082 114.771 94.1885 114.835 93.8771 114.877C93.5685 114.921 93.2654 114.941 92.9707 114.941C91.9004 114.941 91.0663 114.657 90.4658 114.093C89.8652 113.526 89.5677 112.743 89.5677 111.739C89.5677 111.223 89.6623 110.722 89.8486 110.239C90.0348 109.755 90.2962 109.344 90.627 109.002C91.0274 108.591 91.4805 108.288 91.9921 108.099C92.5037 107.91 93.107 107.813 93.8076 107.813C94.1718 107.813 94.5444 107.846 94.928 107.913C95.3117 107.979 95.712 108.08 96.1263 108.216L96.1235 108.221Z" fill="#D6D6D6"/>
<path id="Vector_34" d="M97.0772 107.977H99.3152L100.375 111.431C100.469 111.737 100.544 112.001 100.594 112.223C100.644 112.443 100.683 112.654 100.705 112.857H100.786C100.8 112.668 100.825 112.459 100.864 112.229C100.903 111.998 100.956 111.731 101.022 111.423L101.751 107.977H103.411L101.959 114.785H99.7212L98.5618 110.975C98.5062 110.803 98.4617 110.625 98.4228 110.445C98.3839 110.264 98.3561 110.075 98.3366 109.878H98.2643C98.2337 110.128 98.1976 110.364 98.1642 110.589C98.1281 110.814 98.0919 111.025 98.0502 111.223L97.2968 114.783H95.6287L97.0799 107.974L97.0772 107.977Z" fill="#D6D6D6"/>
<path id="Vector_35" d="M107.636 107.819C108.579 107.819 109.316 108.077 109.847 108.591C110.378 109.105 110.642 109.822 110.642 110.739C110.642 111.228 110.567 111.709 110.417 112.184C110.267 112.66 110.061 113.074 109.799 113.427C109.43 113.921 108.979 114.299 108.454 114.56C107.928 114.822 107.347 114.952 106.711 114.952C105.763 114.952 105.02 114.691 104.489 114.169C103.958 113.646 103.691 112.921 103.691 111.995C103.691 111.509 103.758 111.042 103.891 110.592C104.025 110.142 104.211 109.75 104.456 109.419C104.845 108.883 105.304 108.483 105.832 108.216C106.36 107.949 106.961 107.819 107.639 107.819H107.636ZM108.762 110.645C108.762 110.147 108.654 109.761 108.437 109.489C108.22 109.216 107.912 109.08 107.517 109.08C107.239 109.08 106.978 109.161 106.733 109.325C106.488 109.489 106.269 109.728 106.074 110.045C105.913 110.303 105.785 110.617 105.685 110.987C105.585 111.356 105.535 111.715 105.535 112.068C105.535 112.546 105.646 112.924 105.865 113.201C106.085 113.477 106.388 113.616 106.772 113.616C107.05 113.616 107.308 113.538 107.545 113.379C107.781 113.221 108.009 112.976 108.226 112.648C108.384 112.396 108.515 112.087 108.615 111.72C108.715 111.353 108.762 110.995 108.762 110.648V110.645Z" fill="#D6D6D6"/>
<path id="Vector_36" d="M112.546 107.977H114.381L113.211 113.429H116.03L115.732 114.785H111.092L112.544 107.977H112.546Z" fill="#D6D6D6"/>
<path id="Vector_37" d="M120.645 107.819C121.588 107.819 122.324 108.077 122.855 108.591C123.386 109.105 123.651 109.822 123.651 110.739C123.651 111.228 123.575 111.709 123.425 112.184C123.275 112.66 123.069 113.074 122.808 113.427C122.438 113.921 121.988 114.299 121.462 114.56C120.937 114.822 120.356 114.952 119.719 114.952C118.771 114.952 118.029 114.691 117.498 114.169C116.967 113.646 116.7 112.921 116.7 111.995C116.7 111.509 116.767 111.042 116.9 110.592C117.034 110.142 117.22 109.75 117.465 109.419C117.854 108.883 118.312 108.483 118.841 108.216C119.369 107.949 119.969 107.819 120.648 107.819H120.645ZM121.771 110.645C121.771 110.147 121.663 109.761 121.446 109.489C121.229 109.216 120.92 109.08 120.526 109.08C120.248 109.08 119.986 109.161 119.742 109.325C119.497 109.489 119.277 109.728 119.083 110.045C118.921 110.303 118.793 110.617 118.693 110.987C118.593 111.356 118.543 111.715 118.543 112.068C118.543 112.546 118.654 112.924 118.874 113.201C119.094 113.477 119.397 113.616 119.78 113.616C120.058 113.616 120.317 113.538 120.553 113.379C120.79 113.221 121.018 112.976 121.234 112.648C121.393 112.396 121.524 112.087 121.624 111.72C121.724 111.353 121.771 110.995 121.771 110.648V110.645Z" fill="#D6D6D6"/>
<path id="Vector_38" d="M131.14 108.144L130.748 109.541C130.493 109.405 130.229 109.302 129.956 109.233C129.684 109.163 129.397 109.13 129.1 109.13C128.199 109.13 127.493 109.361 126.981 109.819C126.47 110.278 126.214 110.911 126.214 111.712C126.214 112.295 126.37 112.754 126.684 113.087C126.998 113.421 127.429 113.585 127.979 113.585C128.091 113.585 128.207 113.576 128.324 113.56C128.441 113.543 128.569 113.515 128.708 113.482L129.014 112.059H127.893L128.157 110.822H130.996L130.19 114.588C129.85 114.699 129.489 114.783 129.105 114.841C128.722 114.896 128.302 114.924 127.846 114.924C126.742 114.924 125.889 114.641 125.283 114.077C124.676 113.513 124.371 112.718 124.371 111.695C124.371 111.178 124.457 110.695 124.626 110.247C124.796 109.797 125.049 109.405 125.38 109.066C125.794 108.633 126.283 108.313 126.842 108.113C127.401 107.913 128.082 107.81 128.883 107.81C129.294 107.81 129.689 107.838 130.062 107.891C130.434 107.946 130.796 108.03 131.14 108.144Z" fill="#D6D6D6"/>
<path id="Vector_39" d="M132.889 107.977H134.707L133.256 114.785H131.441L132.892 107.977H132.889Z" fill="#D6D6D6"/>
<path id="Vector_40" d="M138.141 107.977H140.399L141.497 114.785H139.69L139.512 113.335H136.843L136.028 114.785H134.115L138.141 107.977ZM139.053 109.308L137.543 112.048H139.378L139.053 109.308Z" fill="#D6D6D6"/>
</g>
</g>
<defs>
<linearGradient id="paint0_linear_172_1427" x1="21.8414" y1="24.5078" x2="119.035" y2="24.5078" gradientUnits="userSpaceOnUse">
<stop stop-color="white"/>
<stop offset="1" stop-color="white"/>
</linearGradient>
<linearGradient id="paint1_linear_172_1427" x1="50.753" y1="39.4005" x2="90.4797" y2="39.4005" gradientUnits="userSpaceOnUse">
<stop stop-color="white"/>
<stop offset="1" stop-color="white"/>
</linearGradient>
<clipPath id="clip0_172_1427">
<rect width="142" height="114.952" fill="white"/>
</clipPath>
</defs>
</svg>
