<svg width="136" height="112" viewBox="0 0 136 112" fill="none" xmlns="http://www.w3.org/2000/svg">
<g id="logo" clip-path="url(#clip0_223_1959)">
<path id="Vector" d="M114.006 47.7594H89.2661C89.2661 47.7594 89.6282 27.8098 67.6312 25.9957C67.6312 25.9957 47.4183 25.9957 45.9298 47.7594H26.553L40.2821 45.3415L20.9159 36.8776L41.4723 38.0879L24.8248 24.7881L45.0378 32.0418L31.9583 14.51L49.1997 25.9957L42.6599 6.64987L55.7394 22.3675L53.9553 1.81409L62.8729 20.5561L66.4436 0L70.6055 19.9496L78.9293 1.20759L77.739 22.9713L90.8185 5.43957L83.6849 26.5995L100.926 13.2997L89.0371 31.4353L107.94 23.8784L92.6025 36.8748L112.815 35.6645L94.3839 44.7323L114.003 47.754L114.006 47.7594Z" fill="url(#paint0_linear_223_1959)"/>
<path id="Vector_2" d="M86.6566 48.0599C86.6566 37.3757 78.1384 28.7141 67.6312 28.7141C57.124 28.7141 48.6059 37.3757 48.6059 48.0599H86.6566Z" fill="url(#paint1_linear_223_1959)"/>
<path id="Vector_3" d="M52.7704 50.1772H66.0149V54.7341L52.7704 50.1772Z" fill="#096CC7"/>
<path id="Vector_4" d="M67.4634 50.1772L67.6339 55.6168L71.7957 57.4309H79.2275V50.1772H67.4634Z" fill="#096CC7"/>
<path id="Vector_5" d="M92.7915 50.1772H80.8118V57.4309H92.7915V50.1772Z" fill="#096CC7"/>
<path id="Vector_6" d="M106.465 50.1772H94.485V57.4309H106.465V50.1772Z" fill="#096CC7"/>
<path id="Vector_7" d="M106.465 58.6412H94.485V65.8949H106.465V58.6412Z" fill="#096CC7"/>
<path id="Vector_8" d="M120.141 50.1772H108.161V57.4309H120.141V50.1772Z" fill="#096CC7"/>
<path id="Vector_9" d="M74.4691 58.9418L79.2275 61.449V58.9418H74.4691Z" fill="#096CC7"/>
<path id="Vector_10" d="M80.8118 58.9418H92.7889V65.2126L80.8118 62.0772V58.9418Z" fill="#096CC7"/>
<path id="Vector_11" d="M108.161 58.6412V65.8949L120.138 63.6882V58.6412H108.161Z" fill="#096CC7"/>
<g id="Group">
<path id="Vector_12" d="M18.4129 79.85L17.3478 83.7083C16.6555 83.3292 15.9366 83.0449 15.1963 82.8554C14.4561 82.6659 13.6812 82.5711 12.8771 82.5711C10.4327 82.5711 8.51815 83.2047 7.13085 84.4746C5.74356 85.7444 5.05124 87.4827 5.05124 89.6948C5.05124 91.3085 5.47462 92.573 6.32404 93.4882C7.17346 94.406 8.34241 94.8636 9.83355 94.8636C10.1371 94.8636 10.4486 94.8393 10.7682 94.7905C11.0877 94.7418 11.4365 94.6687 11.8093 94.5712L12.6401 90.6452H9.59922L10.3155 87.2363H18.0109L15.8274 97.6254C14.9087 97.934 13.9289 98.1642 12.8904 98.3185C11.8519 98.4729 10.7096 98.5487 9.47141 98.5487C6.48114 98.5487 4.16455 97.7689 2.51631 96.2093C0.870726 94.6497 0.0452728 92.4593 0.0452728 89.6407C0.0452728 88.2138 0.276932 86.8816 0.740251 85.6415C1.20357 84.4042 1.88523 83.3184 2.78791 82.3843C3.91425 81.1848 5.23497 80.3103 6.75274 79.7552C8.26785 79.2001 10.1158 78.9213 12.2913 78.9213C13.4096 78.9213 14.4747 78.9971 15.4892 79.146C16.5037 79.2949 17.4783 79.5305 18.4129 79.8473V79.85Z" fill="#085B91"/>
<path id="Vector_13" d="M23.0807 79.387H30.0492C32.2513 79.387 33.9048 79.7769 35.0152 80.5566C36.1256 81.3364 36.6794 82.498 36.6794 84.0386C36.6794 85.4222 36.2374 86.5269 35.3534 87.3554C34.4693 88.184 33.2178 88.6632 31.5962 88.7959C32.0995 89.1127 32.4882 89.4863 32.7652 89.9141C33.0421 90.3419 33.2631 90.9647 33.4282 91.7851L34.7942 98.1696H29.9453L28.6459 92.1289C28.5234 91.601 28.3024 91.23 27.9775 91.0188C27.6527 90.8076 27.1388 90.702 26.4358 90.702H25.5518L24.0047 98.1696H19.1692L23.0807 79.387ZM27.1494 82.8229L26.2787 87.2119H28.0335C29.1784 87.2119 30.0625 86.998 30.6856 86.5702C31.3086 86.1424 31.6202 85.5413 31.6202 84.767C31.6202 84.1226 31.4045 83.6379 30.9758 83.313C30.5471 82.9881 29.9107 82.8229 29.0719 82.8229H27.1468H27.1494Z" fill="#085B91"/>
<path id="Vector_14" d="M46.2706 79.387H52.3923L55.3692 98.1696H50.4698L49.9878 94.1651H42.7478L40.5377 98.1696H35.3507L46.2706 79.387ZM48.7417 83.0612L44.6463 90.6208H49.6257L48.7417 83.0612Z" fill="#085B91"/>
<path id="Vector_15" d="M60.6974 79.387H66.1561C68.7549 79.387 70.6694 79.7985 71.8943 80.6216C73.1191 81.4447 73.7342 82.7308 73.7342 84.4745C73.7342 86.6244 73.0286 88.3166 71.6147 89.5513C70.2034 90.786 68.257 91.4006 65.7779 91.4006C65.4744 91.4006 65.1043 91.3952 64.6676 91.3816C64.2309 91.3681 63.725 91.3492 63.1525 91.3221L61.6826 98.1696H56.7832L60.6948 79.387H60.6974ZM64.8966 82.7715L63.8688 87.8076H65.1682C66.3558 87.8076 67.2771 87.5585 67.9374 87.0603C68.5951 86.5621 68.9253 85.8744 68.9253 84.9917C68.9253 84.2688 68.6777 83.7191 68.1851 83.3401C67.6898 82.961 66.9762 82.7715 66.0416 82.7715H64.8966Z" fill="#085B91"/>
<path id="Vector_16" d="M77.4674 79.387H82.4974L81.0275 86.4457H86.7471L88.2409 79.387H93.2708L89.3593 98.1696H84.3027L85.9802 90.212H80.234L78.5831 98.1696H73.5532L77.4648 79.387H77.4674Z" fill="#085B91"/>
<path id="Vector_17" d="M96.9268 79.387H101.853L97.9147 98.1696H92.9886L96.9268 79.387Z" fill="#085B91"/>
<path id="Vector_18" d="M120.649 80.0611L119.427 83.8816C118.777 83.4673 118.09 83.1586 117.366 82.9556C116.642 82.7525 115.864 82.6523 115.034 82.6523C112.807 82.6523 111.069 83.294 109.82 84.5747C108.571 85.8554 107.948 87.6343 107.948 89.9087C107.948 91.3897 108.419 92.5621 109.365 93.4313C110.31 94.3004 111.591 94.7336 113.212 94.7336C113.931 94.7336 114.658 94.6362 115.39 94.4439C116.123 94.249 116.871 93.9593 117.632 93.5721L117.164 97.9069C116.264 98.1371 115.39 98.3104 114.552 98.4295C113.71 98.5486 112.893 98.6082 112.094 98.6082C109.191 98.6082 106.928 97.8284 105.301 96.2688C103.674 94.7093 102.865 92.5459 102.865 89.7787C102.865 88.3518 103.118 86.9709 103.626 85.6415C104.132 84.3121 104.838 83.1749 105.738 82.2326C106.822 81.0954 108.054 80.2669 109.436 79.7416C110.818 79.2164 112.459 78.9564 114.357 78.9564C115.345 78.9564 116.36 79.0485 117.398 79.2353C118.437 79.4221 119.52 79.6983 120.647 80.0693L120.649 80.0611Z" fill="#085B91"/>
<path id="Vector_19" d="M136 79.8094L134.855 83.4701C134.179 83.1614 133.494 82.9313 132.802 82.7769C132.11 82.6226 131.399 82.5468 130.669 82.5468C129.569 82.5468 128.725 82.712 128.142 83.0423C127.556 83.3726 127.266 83.8519 127.266 84.4773C127.266 85.1569 127.924 85.7715 129.242 86.3266C129.769 86.5459 130.187 86.7328 130.491 86.8817C132.024 87.6398 133.068 88.379 133.622 89.1019C134.176 89.8248 134.453 90.7454 134.453 91.8637C134.453 93.916 133.681 95.5541 132.139 96.7725C130.597 97.9937 128.504 98.6029 125.86 98.6029C124.742 98.6029 123.669 98.5162 122.644 98.3457C121.618 98.1751 120.625 97.9151 119.672 97.5713L120.737 93.6994C121.509 94.0866 122.255 94.379 122.979 94.5713C123.703 94.7662 124.412 94.861 125.104 94.861C126.369 94.861 127.365 94.6498 128.094 94.2274C128.821 93.805 129.186 93.231 129.186 92.5081C129.186 91.601 128.219 90.7535 126.286 89.971C125.802 89.7788 125.424 89.6218 125.155 89.508C124.105 89.0586 123.325 88.4683 122.814 87.7373C122.303 87.0062 122.047 86.1235 122.047 85.0946C122.047 83.2806 122.763 81.8049 124.191 80.6731C125.621 79.5414 127.498 78.9755 129.82 78.9755C131.111 78.9755 132.277 79.0459 133.324 79.1867C134.37 79.3275 135.26 79.5359 135.995 79.8067L136 79.8094Z" fill="#085B91"/>
</g>
<g id="Group_2">
<path id="Vector_20" d="M1.38996 105.204H3.12873L1.73878 111.838H0L1.38996 105.204Z" fill="#F7931E"/>
<path id="Vector_21" d="M4.4388 105.204H7.14415L7.28528 108.575C7.28794 108.645 7.29061 108.721 7.29327 108.802C7.29327 108.881 7.29327 108.981 7.29327 109.103C7.29327 109.206 7.29327 109.325 7.28528 109.458C7.27729 109.59 7.27463 109.742 7.26398 109.907C7.32256 109.707 7.39445 109.498 7.48232 109.274C7.57019 109.051 7.67404 108.808 7.7912 108.548L9.30098 105.207H12.1049L10.6963 111.84H9.0853L9.90809 107.836C9.95069 107.614 10.0013 107.381 10.0625 107.135C10.1238 106.888 10.1877 106.628 10.2622 106.349H10.2063L7.66872 111.84H6.06308L5.82876 106.349H5.75154C5.67698 106.78 5.61574 107.135 5.56781 107.416C5.51988 107.698 5.48792 107.874 5.47195 107.947L4.64649 111.84H3.04352L4.4388 105.207V105.204Z" fill="#F7931E"/>
<path id="Vector_22" d="M13.359 105.204H15.2868C16.2055 105.204 16.8818 105.35 17.3132 105.64C17.7472 105.932 17.9629 106.385 17.9629 107.002C17.9629 107.76 17.7126 108.358 17.2147 108.794C16.7167 109.23 16.0298 109.447 15.1537 109.447C15.0472 109.447 14.9167 109.447 14.7623 109.439C14.6078 109.433 14.4294 109.428 14.2271 109.417L13.7078 111.835H11.9771L13.359 105.201V105.204ZM14.8422 106.398L14.48 108.177H14.938C15.3561 108.177 15.6836 108.09 15.9153 107.914C16.1469 107.738 16.2641 107.495 16.2641 107.183C16.2641 106.929 16.1762 106.734 16.0031 106.598C15.8301 106.463 15.5771 106.398 15.2469 106.398H14.8422Z" fill="#F7931E"/>
<path id="Vector_23" d="M19.4594 105.204H21.2168L20.0958 110.516H22.7958L22.5109 111.838H18.0668L19.4567 105.204H19.4594Z" fill="#F7931E"/>
<path id="Vector_24" d="M26.5503 105.204H28.7124L29.7642 111.838H28.0334L27.863 110.424H25.3068L24.5266 111.838H22.6946L26.5503 105.204ZM27.4237 106.501L25.9778 109.171H27.7352L27.4237 106.501Z" fill="#F7931E"/>
<path id="Vector_25" d="M31.6175 105.204H33.761L34.7755 108.57C34.8661 108.867 34.938 109.125 34.9859 109.341C35.0338 109.555 35.0711 109.761 35.0924 109.959H35.1696C35.1829 109.774 35.2069 109.571 35.2442 109.347C35.2814 109.122 35.332 108.862 35.3959 108.561L36.0936 105.204H37.6833L36.2933 111.838H34.1498L33.0394 108.126C32.9862 107.958 32.9436 107.784 32.9063 107.608C32.869 107.432 32.8424 107.248 32.8237 107.056H32.7545C32.7225 107.3 32.6906 107.53 32.6586 107.749C32.6267 107.968 32.5894 108.174 32.5495 108.366L31.8279 111.835H30.2302L31.6202 105.201L31.6175 105.204Z" fill="#F7931E"/>
<path id="Vector_26" d="M38.4501 105.204H43.5014L43.2298 106.482H41.5629L40.4419 111.838H38.6845L39.8055 106.482H38.1892L38.4501 105.204Z" fill="#F7931E"/>
<path id="Vector_27" d="M45.9271 105.204H48.0893L49.1411 111.838H47.4103L47.2399 110.424H44.6836L43.9034 111.838H42.0715L45.9271 105.204ZM46.8005 106.501L45.3546 109.171H47.1121L46.8005 106.501Z" fill="#F7931E"/>
<path id="Vector_28" d="M50.997 105.204H53.1405L54.155 108.57C54.2456 108.867 54.3175 109.125 54.3654 109.341C54.4133 109.555 54.4506 109.761 54.4719 109.959H54.5491C54.5624 109.774 54.5864 109.571 54.6237 109.347C54.6609 109.122 54.7115 108.862 54.7754 108.561L55.4731 105.204H57.0628L55.6728 111.838H53.5293L52.4189 108.126C52.3657 107.958 52.3231 107.784 52.2858 107.608C52.2485 107.432 52.2219 107.248 52.2032 107.056H52.134C52.102 107.3 52.0701 107.53 52.0381 107.749C52.0062 107.968 51.9689 108.174 51.929 108.366L51.2074 111.835H49.6097L50.9997 105.201L50.997 105.204Z" fill="#F7931E"/>
<path id="Vector_29" d="M58.3355 105.204H60.5084C61.656 105.204 62.5107 105.445 63.0699 105.927C63.6291 106.409 63.9113 107.145 63.9113 108.136C63.9113 108.705 63.8128 109.233 63.6211 109.718C63.4267 110.202 63.1525 110.6 62.7957 110.912C62.4309 111.237 62.0048 111.472 61.5149 111.618C61.0249 111.767 60.4152 111.84 59.6829 111.84H56.9562L58.3382 105.207L58.3355 105.204ZM59.8507 106.482L59.0012 110.524H59.7362C60.1222 110.524 60.4444 110.481 60.7081 110.392C60.969 110.302 61.198 110.162 61.3897 109.964C61.6267 109.726 61.8078 109.439 61.9382 109.108C62.0687 108.778 62.1326 108.434 62.1326 108.079C62.1326 107.573 61.9915 107.178 61.7092 106.902C61.427 106.625 61.0276 106.485 60.5057 106.485H59.848L59.8507 106.482Z" fill="#F7931E"/>
<path id="Vector_30" d="M68.3768 105.05C69.2794 105.05 69.9851 105.301 70.4937 105.802C71.0022 106.303 71.2552 107.002 71.2552 107.895C71.2552 108.372 71.1833 108.84 71.0395 109.303C70.8957 109.766 70.6987 110.17 70.4484 110.514C70.0942 110.996 69.6629 111.364 69.1596 111.618C68.6564 111.873 68.0998 112 67.4901 112C66.5821 112 65.8711 111.746 65.3625 111.237C64.854 110.728 64.5983 110.021 64.5983 109.119C64.5983 108.645 64.6622 108.19 64.79 107.752C64.9179 107.313 65.0963 106.931 65.3306 106.609C65.7034 106.087 66.1427 105.697 66.6486 105.437C67.1546 105.177 67.7297 105.05 68.3794 105.05H68.3768ZM69.4552 107.803C69.4552 107.319 69.3513 106.942 69.1436 106.677C68.936 106.412 68.6404 106.279 68.2623 106.279C67.996 106.279 67.7457 106.357 67.5114 106.517C67.2771 106.677 67.0667 106.91 66.8803 107.218C66.7285 107.47 66.6034 107.776 66.5075 108.136C66.4117 108.496 66.3664 108.846 66.3664 109.19C66.3664 109.655 66.4729 110.024 66.6833 110.294C66.8936 110.565 67.1839 110.698 67.5513 110.698C67.8176 110.698 68.0652 110.622 68.2916 110.468C68.5179 110.313 68.7362 110.075 68.9439 109.755C69.0957 109.509 69.2209 109.209 69.3167 108.851C69.4126 108.494 69.4578 108.144 69.4578 107.806L69.4552 107.803Z" fill="#F7931E"/>
<path id="Vector_31" d="M75.3053 105.204H80.3538L80.0822 106.482H78.4154L77.2943 111.838H75.5369L76.6579 106.482H75.0417L75.3026 105.204H75.3053Z" fill="#F7931E"/>
<path id="Vector_32" d="M81.0808 105.204H85.6767L85.4157 106.436H82.5559L82.2843 107.765H84.9737L84.7261 108.959H82.0314L81.6905 110.595H84.6515L84.3906 111.838H79.6908L81.0808 105.204Z" fill="#F7931E"/>
<path id="Vector_33" d="M92.062 105.442L91.6306 106.791C91.4016 106.644 91.1593 106.536 90.9037 106.463C90.648 106.393 90.3738 106.355 90.0809 106.355C89.2954 106.355 88.6803 106.582 88.2409 107.034C87.7989 107.486 87.5805 108.115 87.5805 108.919C87.5805 109.441 87.7483 109.856 88.0811 110.162C88.414 110.468 88.8667 110.622 89.4391 110.622C89.6921 110.622 89.9504 110.587 90.2087 110.519C90.467 110.451 90.7306 110.348 90.9995 110.21L90.8344 111.743C90.5149 111.824 90.2087 111.886 89.9105 111.927C89.6149 111.97 89.3246 111.989 89.0424 111.989C88.0172 111.989 87.2184 111.713 86.6433 111.163C86.0681 110.611 85.7832 109.847 85.7832 108.87C85.7832 108.366 85.8737 107.879 86.0521 107.408C86.2305 106.937 86.4808 106.536 86.7977 106.203C87.1811 105.802 87.6152 105.507 88.1051 105.323C88.5951 105.139 89.1729 105.044 89.8439 105.044C90.1927 105.044 90.5495 105.077 90.917 105.142C91.2844 105.207 91.6679 105.304 92.0646 105.437L92.062 105.442Z" fill="#F7931E"/>
<path id="Vector_34" d="M92.9753 105.204H95.1188L96.1333 108.57C96.2238 108.867 96.2957 109.125 96.3437 109.341C96.3916 109.555 96.4289 109.761 96.4502 109.959H96.5274C96.5407 109.774 96.5647 109.571 96.6019 109.347C96.6392 109.122 96.6898 108.862 96.7537 108.561L97.4514 105.204H99.041L97.6511 111.838H95.5076L94.3972 108.126C94.3439 107.958 94.3013 107.784 94.2641 107.608C94.2268 107.432 94.2001 107.248 94.1815 107.056H94.1123C94.083 107.3 94.0484 107.53 94.0164 107.749C93.9818 107.968 93.9472 108.174 93.9072 108.366L93.1856 111.835H91.588L92.9779 105.201L92.9753 105.204Z" fill="#F7931E"/>
<path id="Vector_35" d="M103.088 105.05C103.991 105.05 104.697 105.301 105.205 105.802C105.714 106.303 105.967 107.002 105.967 107.895C105.967 108.372 105.895 108.84 105.751 109.303C105.607 109.766 105.41 110.17 105.16 110.514C104.806 110.996 104.375 111.364 103.871 111.618C103.368 111.873 102.811 112 102.202 112C101.294 112 100.583 111.746 100.074 111.237C99.5656 110.728 99.31 110.021 99.31 109.119C99.31 108.645 99.3739 108.19 99.5017 107.752C99.6295 107.313 99.8079 106.931 100.042 106.609C100.415 106.087 100.854 105.697 101.36 105.437C101.866 105.177 102.441 105.05 103.091 105.05H103.088ZM104.167 107.803C104.167 107.319 104.063 106.942 103.855 106.677C103.648 106.412 103.352 106.279 102.974 106.279C102.708 106.279 102.457 106.357 102.223 106.517C101.989 106.677 101.778 106.91 101.592 107.218C101.437 107.47 101.315 107.776 101.219 108.136C101.123 108.496 101.075 108.846 101.075 109.19C101.075 109.655 101.182 110.024 101.392 110.294C101.603 110.562 101.893 110.698 102.26 110.698C102.527 110.698 102.774 110.622 103.001 110.468C103.227 110.313 103.445 110.075 103.653 109.755C103.805 109.509 103.93 109.209 104.026 108.851C104.122 108.494 104.167 108.144 104.167 107.806V107.803Z" fill="#F7931E"/>
<path id="Vector_36" d="M107.791 105.204H109.548L108.427 110.516H111.127L110.842 111.838H106.398L107.788 105.204H107.791Z" fill="#F7931E"/>
<path id="Vector_37" d="M115.547 105.05C116.45 105.05 117.156 105.301 117.664 105.802C118.173 106.303 118.426 107.002 118.426 107.895C118.426 108.372 118.354 108.84 118.21 109.303C118.066 109.766 117.869 110.17 117.619 110.514C117.265 110.996 116.834 111.364 116.33 111.618C115.827 111.873 115.27 112 114.661 112C113.753 112 113.042 111.746 112.533 111.237C112.025 110.728 111.769 110.021 111.769 109.119C111.769 108.645 111.833 108.19 111.961 107.752C112.088 107.313 112.267 106.931 112.501 106.609C112.874 106.087 113.313 105.697 113.819 105.437C114.325 105.177 114.9 105.05 115.55 105.05H115.547ZM116.626 107.803C116.626 107.319 116.522 106.942 116.314 106.677C116.107 106.412 115.811 106.279 115.433 106.279C115.167 106.279 114.916 106.357 114.682 106.517C114.448 106.677 114.237 106.91 114.051 107.218C113.897 107.47 113.774 107.776 113.678 108.136C113.582 108.496 113.534 108.846 113.534 109.19C113.534 109.655 113.641 110.024 113.851 110.294C114.062 110.562 114.352 110.698 114.719 110.698C114.986 110.698 115.233 110.622 115.46 110.468C115.686 110.313 115.904 110.075 116.112 109.755C116.264 109.509 116.389 109.209 116.485 108.851C116.581 108.494 116.626 108.144 116.626 107.806V107.803Z" fill="#F7931E"/>
<path id="Vector_38" d="M125.599 105.366L125.224 106.728C124.979 106.596 124.726 106.495 124.465 106.428C124.204 106.36 123.93 106.328 123.645 106.328C122.782 106.328 122.106 106.552 121.616 106.999C121.126 107.446 120.881 108.063 120.881 108.843C120.881 109.412 121.03 109.858 121.331 110.183C121.632 110.508 122.045 110.668 122.572 110.668C122.678 110.668 122.79 110.66 122.902 110.644C123.014 110.627 123.136 110.6 123.269 110.568L123.562 109.181H122.489L122.742 107.977H125.461L124.689 111.645C124.364 111.754 124.018 111.835 123.65 111.892C123.283 111.946 122.881 111.973 122.444 111.973C121.387 111.973 120.569 111.697 119.989 111.147C119.408 110.598 119.116 109.823 119.116 108.827C119.116 108.323 119.198 107.852 119.36 107.416C119.523 106.977 119.765 106.596 120.082 106.265C120.479 105.843 120.947 105.532 121.483 105.337C122.018 105.142 122.67 105.042 123.437 105.042C123.831 105.042 124.209 105.069 124.566 105.12C124.923 105.174 125.269 105.255 125.599 105.366Z" fill="#F7931E"/>
<path id="Vector_39" d="M127.274 105.204H129.016L127.626 111.838H125.887L127.277 105.204H127.274Z" fill="#F7931E"/>
<path id="Vector_40" d="M132.304 105.204H134.466L135.518 111.838H133.787L133.617 110.424H131.061L130.28 111.838H128.448L132.304 105.204ZM133.177 106.501L131.732 109.171H133.489L133.177 106.501Z" fill="#F7931E"/>
</g>
</g>
<defs>
<linearGradient id="paint0_linear_223_1959" x1="20.9186" y1="23.8784" x2="114.006" y2="23.8784" gradientUnits="userSpaceOnUse">
<stop stop-color="#FCEE21"/>
<stop offset="1" stop-color="#F7931E"/>
</linearGradient>
<linearGradient id="paint1_linear_223_1959" x1="48.6085" y1="38.3884" x2="86.6566" y2="38.3884" gradientUnits="userSpaceOnUse">
<stop stop-color="#FCEE21"/>
<stop offset="1" stop-color="#F7931E"/>
</linearGradient>
<clipPath id="clip0_223_1959">
<rect width="136" height="112" fill="white"/>
</clipPath>
</defs>
</svg>
